<?xml version="1.0" encoding="UTF-8"?>
<svg width="19px" height="19px" viewBox="0 0 19 19" version="1.1" xmlns="http://www.w3.org/2000/svg" xmlns:xlink="http://www.w3.org/1999/xlink">
    <!-- Generator: sketchtool 61.2 (101010) - https://sketch.com -->
    <title>BCDA03F4-FA56-4D0D-98DB-1946D0EBA2D6</title>
    <desc>Created with sketchtool.</desc>
    <defs>
        <path d="M7.6000003,9.10416667 C7.6000003,10.1425771 8.45065931,10.984375 9.50000038,10.984375 C10.5493414,10.984375 11.4000005,10.1425771 11.4000005,9.10416667 L19,9.10416667 L19,13.625 C19,15.2818542 17.6568542,16.625 16,16.625 L3,16.625 C1.34314575,16.625 2.02906125e-16,15.2818542 0,13.625 L0,9.10416667 L7.6000003,9.10416667 Z M16,2.77083333 C17.6568542,2.77083333 19,4.11397908 19,5.77083333 L19,6.72916667 L0,6.72916667 L0,5.77083333 C-2.02906125e-16,4.11397908 1.34314575,2.77083333 3,2.77083333 L16,2.77083333 Z" id="path-1"></path>
        <filter x="-184.2%" y="-223.8%" width="468.4%" height="605.3%" filterUnits="objectBoundingBox" id="filter-2">
            <feOffset dx="0" dy="4" in="SourceAlpha" result="shadowOffsetOuter1"></feOffset>
            <feGaussianBlur stdDeviation="11" in="shadowOffsetOuter1" result="shadowBlurOuter1"></feGaussianBlur>
            <feColorMatrix values="0 0 0 0 0   0 0 0 0 0   0 0 0 0 0  0 0 0 0.1 0" type="matrix" in="shadowBlurOuter1"></feColorMatrix>
        </filter>
    </defs>
    <g id="Asset-Artboard-Page" stroke="none" stroke-width="1" fill="none" fill-rule="evenodd">
        <g id="icons/messages-icons/packages">
            <g id="Combined-Shape">
                <use fill="black" fill-opacity="1" filter="url(#filter-2)" xlink:href="#path-1"></use>
                <use fill="#353534" fill-rule="evenodd" xlink:href="#path-1"></use>
            </g>
        </g>
    </g>
</svg>